<mxfile host="app.diagrams.net" modified="2023-04-26T17:26:21.724Z" agent="Mozilla/5.0 (Windows NT 10.0; Win64; x64; rv:109.0) Gecko/20100101 Firefox/112.0" etag="5GqZodRcGRvu6eBTu_4Q" version="21.2.2" type="github">
  <diagram id="C5RBs43oDa-KdzZeNtuy" name="Page-1">
    <mxGraphModel dx="1516" dy="688" grid="1" gridSize="10" guides="1" tooltips="1" connect="1" arrows="1" fold="1" page="1" pageScale="1" pageWidth="827" pageHeight="1169" math="0" shadow="0">
      <root>
        <mxCell id="WIyWlLk6GJQsqaUBKTNV-0" />
        <mxCell id="WIyWlLk6GJQsqaUBKTNV-1" parent="WIyWlLk6GJQsqaUBKTNV-0" />
        <mxCell id="WIyWlLk6GJQsqaUBKTNV-2" value="" style="rounded=0;html=1;jettySize=auto;orthogonalLoop=1;fontSize=11;endArrow=block;endFill=0;endSize=8;strokeWidth=1;shadow=0;labelBackgroundColor=none;edgeStyle=orthogonalEdgeStyle;" parent="WIyWlLk6GJQsqaUBKTNV-1" source="WIyWlLk6GJQsqaUBKTNV-3" target="WIyWlLk6GJQsqaUBKTNV-6" edge="1">
          <mxGeometry relative="1" as="geometry">
            <Array as="points">
              <mxPoint x="140" y="120" />
              <mxPoint x="140" y="120" />
            </Array>
          </mxGeometry>
        </mxCell>
        <mxCell id="WIyWlLk6GJQsqaUBKTNV-3" value="START" style="rounded=1;whiteSpace=wrap;html=1;fontSize=12;glass=0;strokeWidth=1;shadow=0;" parent="WIyWlLk6GJQsqaUBKTNV-1" vertex="1">
          <mxGeometry x="80" y="50" width="120" height="40" as="geometry" />
        </mxCell>
        <mxCell id="sGlPZytf064K-ZdQLq3d-1" style="edgeStyle=orthogonalEdgeStyle;rounded=0;orthogonalLoop=1;jettySize=auto;html=1;exitX=1;exitY=0.5;exitDx=0;exitDy=0;" edge="1" parent="WIyWlLk6GJQsqaUBKTNV-1" source="WIyWlLk6GJQsqaUBKTNV-6">
          <mxGeometry relative="1" as="geometry">
            <mxPoint x="140" y="120" as="targetPoint" />
          </mxGeometry>
        </mxCell>
        <mxCell id="sGlPZytf064K-ZdQLq3d-36" style="edgeStyle=orthogonalEdgeStyle;rounded=0;orthogonalLoop=1;jettySize=auto;html=1;exitX=0.5;exitY=1;exitDx=0;exitDy=0;entryX=0.5;entryY=0;entryDx=0;entryDy=0;" edge="1" parent="WIyWlLk6GJQsqaUBKTNV-1" source="WIyWlLk6GJQsqaUBKTNV-6" target="sGlPZytf064K-ZdQLq3d-12">
          <mxGeometry relative="1" as="geometry" />
        </mxCell>
        <mxCell id="WIyWlLk6GJQsqaUBKTNV-6" value="Enable System" style="rhombus;whiteSpace=wrap;html=1;shadow=0;fontFamily=Helvetica;fontSize=12;align=center;strokeWidth=1;spacing=6;spacingTop=-4;" parent="WIyWlLk6GJQsqaUBKTNV-1" vertex="1">
          <mxGeometry x="90" y="140" width="100" height="80" as="geometry" />
        </mxCell>
        <mxCell id="sGlPZytf064K-ZdQLq3d-24" style="edgeStyle=orthogonalEdgeStyle;rounded=0;orthogonalLoop=1;jettySize=auto;html=1;exitX=0.5;exitY=1;exitDx=0;exitDy=0;entryX=0.5;entryY=0;entryDx=0;entryDy=0;" edge="1" parent="WIyWlLk6GJQsqaUBKTNV-1" source="sGlPZytf064K-ZdQLq3d-32" target="sGlPZytf064K-ZdQLq3d-23">
          <mxGeometry relative="1" as="geometry">
            <mxPoint x="269.9999999999998" y="810" as="sourcePoint" />
          </mxGeometry>
        </mxCell>
        <mxCell id="sGlPZytf064K-ZdQLq3d-33" style="edgeStyle=orthogonalEdgeStyle;rounded=0;orthogonalLoop=1;jettySize=auto;html=1;exitX=0.5;exitY=1;exitDx=0;exitDy=0;entryX=0.5;entryY=0;entryDx=0;entryDy=0;" edge="1" parent="WIyWlLk6GJQsqaUBKTNV-1" source="sGlPZytf064K-ZdQLq3d-9" target="sGlPZytf064K-ZdQLq3d-32">
          <mxGeometry relative="1" as="geometry" />
        </mxCell>
        <mxCell id="sGlPZytf064K-ZdQLq3d-9" value="State Stop To Running" style="text;html=1;strokeColor=none;fillColor=none;align=center;verticalAlign=middle;whiteSpace=wrap;rounded=0;" vertex="1" parent="WIyWlLk6GJQsqaUBKTNV-1">
          <mxGeometry x="180" y="680" width="180" height="30" as="geometry" />
        </mxCell>
        <mxCell id="sGlPZytf064K-ZdQLq3d-15" style="edgeStyle=orthogonalEdgeStyle;rounded=0;orthogonalLoop=1;jettySize=auto;html=1;exitX=1;exitY=0.5;exitDx=0;exitDy=0;entryX=0.5;entryY=0;entryDx=0;entryDy=0;" edge="1" parent="WIyWlLk6GJQsqaUBKTNV-1" source="sGlPZytf064K-ZdQLq3d-12" target="sGlPZytf064K-ZdQLq3d-14">
          <mxGeometry relative="1" as="geometry" />
        </mxCell>
        <mxCell id="sGlPZytf064K-ZdQLq3d-17" style="edgeStyle=orthogonalEdgeStyle;rounded=0;orthogonalLoop=1;jettySize=auto;html=1;exitX=0;exitY=0.5;exitDx=0;exitDy=0;entryX=0.5;entryY=0;entryDx=0;entryDy=0;" edge="1" parent="WIyWlLk6GJQsqaUBKTNV-1" source="sGlPZytf064K-ZdQLq3d-12" target="sGlPZytf064K-ZdQLq3d-16">
          <mxGeometry relative="1" as="geometry" />
        </mxCell>
        <mxCell id="sGlPZytf064K-ZdQLq3d-12" value="Throttle check" style="rhombus;whiteSpace=wrap;html=1;" vertex="1" parent="WIyWlLk6GJQsqaUBKTNV-1">
          <mxGeometry x="100" y="280" width="80" height="80" as="geometry" />
        </mxCell>
        <mxCell id="sGlPZytf064K-ZdQLq3d-21" style="edgeStyle=orthogonalEdgeStyle;rounded=0;orthogonalLoop=1;jettySize=auto;html=1;exitX=0.5;exitY=1;exitDx=0;exitDy=0;" edge="1" parent="WIyWlLk6GJQsqaUBKTNV-1" source="sGlPZytf064K-ZdQLq3d-14" target="sGlPZytf064K-ZdQLq3d-20">
          <mxGeometry relative="1" as="geometry" />
        </mxCell>
        <mxCell id="sGlPZytf064K-ZdQLq3d-14" value="Value return &amp;gt;0" style="text;html=1;strokeColor=none;fillColor=none;align=center;verticalAlign=middle;whiteSpace=wrap;rounded=0;" vertex="1" parent="WIyWlLk6GJQsqaUBKTNV-1">
          <mxGeometry x="240" y="390" width="60" height="30" as="geometry" />
        </mxCell>
        <mxCell id="sGlPZytf064K-ZdQLq3d-19" style="edgeStyle=orthogonalEdgeStyle;rounded=0;orthogonalLoop=1;jettySize=auto;html=1;exitX=0.5;exitY=1;exitDx=0;exitDy=0;entryX=0.5;entryY=0;entryDx=0;entryDy=0;" edge="1" parent="WIyWlLk6GJQsqaUBKTNV-1" source="sGlPZytf064K-ZdQLq3d-16" target="sGlPZytf064K-ZdQLq3d-18">
          <mxGeometry relative="1" as="geometry" />
        </mxCell>
        <mxCell id="sGlPZytf064K-ZdQLq3d-16" value="Value return &amp;lt;=0" style="text;html=1;strokeColor=none;fillColor=none;align=center;verticalAlign=middle;whiteSpace=wrap;rounded=0;" vertex="1" parent="WIyWlLk6GJQsqaUBKTNV-1">
          <mxGeometry x="20" y="390" width="60" height="30" as="geometry" />
        </mxCell>
        <mxCell id="sGlPZytf064K-ZdQLq3d-39" style="edgeStyle=orthogonalEdgeStyle;rounded=0;orthogonalLoop=1;jettySize=auto;html=1;exitX=0.5;exitY=1;exitDx=0;exitDy=0;entryX=0.5;entryY=0;entryDx=0;entryDy=0;" edge="1" parent="WIyWlLk6GJQsqaUBKTNV-1" source="sGlPZytf064K-ZdQLq3d-18" target="sGlPZytf064K-ZdQLq3d-25">
          <mxGeometry relative="1" as="geometry">
            <Array as="points">
              <mxPoint x="50" y="530" />
              <mxPoint x="270" y="530" />
            </Array>
          </mxGeometry>
        </mxCell>
        <mxCell id="sGlPZytf064K-ZdQLq3d-18" value="Not enable run" style="rounded=0;whiteSpace=wrap;html=1;" vertex="1" parent="WIyWlLk6GJQsqaUBKTNV-1">
          <mxGeometry x="-10" y="460" width="120" height="60" as="geometry" />
        </mxCell>
        <mxCell id="sGlPZytf064K-ZdQLq3d-28" style="edgeStyle=orthogonalEdgeStyle;rounded=0;orthogonalLoop=1;jettySize=auto;html=1;exitX=0.5;exitY=1;exitDx=0;exitDy=0;entryX=0.5;entryY=0;entryDx=0;entryDy=0;" edge="1" parent="WIyWlLk6GJQsqaUBKTNV-1" source="sGlPZytf064K-ZdQLq3d-20" target="sGlPZytf064K-ZdQLq3d-25">
          <mxGeometry relative="1" as="geometry" />
        </mxCell>
        <mxCell id="sGlPZytf064K-ZdQLq3d-20" value="Enable run" style="rounded=0;whiteSpace=wrap;html=1;" vertex="1" parent="WIyWlLk6GJQsqaUBKTNV-1">
          <mxGeometry x="210" y="460" width="120" height="60" as="geometry" />
        </mxCell>
        <mxCell id="sGlPZytf064K-ZdQLq3d-38" style="edgeStyle=orthogonalEdgeStyle;rounded=0;orthogonalLoop=1;jettySize=auto;html=1;" edge="1" parent="WIyWlLk6GJQsqaUBKTNV-1" source="sGlPZytf064K-ZdQLq3d-23">
          <mxGeometry relative="1" as="geometry">
            <mxPoint x="140" y="239.9999999999999" as="targetPoint" />
            <Array as="points">
              <mxPoint x="270" y="940" />
              <mxPoint x="410" y="940" />
              <mxPoint x="410" y="240" />
            </Array>
          </mxGeometry>
        </mxCell>
        <mxCell id="sGlPZytf064K-ZdQLq3d-23" value="Enable Torque Control" style="rounded=1;whiteSpace=wrap;html=1;" vertex="1" parent="WIyWlLk6GJQsqaUBKTNV-1">
          <mxGeometry x="210" y="850" width="120" height="60" as="geometry" />
        </mxCell>
        <mxCell id="sGlPZytf064K-ZdQLq3d-26" style="edgeStyle=orthogonalEdgeStyle;rounded=0;orthogonalLoop=1;jettySize=auto;html=1;exitX=0.5;exitY=1;exitDx=0;exitDy=0;" edge="1" parent="WIyWlLk6GJQsqaUBKTNV-1" source="sGlPZytf064K-ZdQLq3d-25" target="sGlPZytf064K-ZdQLq3d-9">
          <mxGeometry relative="1" as="geometry" />
        </mxCell>
        <mxCell id="sGlPZytf064K-ZdQLq3d-34" style="edgeStyle=orthogonalEdgeStyle;rounded=0;orthogonalLoop=1;jettySize=auto;html=1;exitX=0;exitY=0.5;exitDx=0;exitDy=0;entryX=0.5;entryY=0;entryDx=0;entryDy=0;" edge="1" parent="WIyWlLk6GJQsqaUBKTNV-1" source="sGlPZytf064K-ZdQLq3d-25" target="sGlPZytf064K-ZdQLq3d-29">
          <mxGeometry relative="1" as="geometry" />
        </mxCell>
        <mxCell id="sGlPZytf064K-ZdQLq3d-25" value="Current Mottion Pattern" style="rhombus;whiteSpace=wrap;html=1;" vertex="1" parent="WIyWlLk6GJQsqaUBKTNV-1">
          <mxGeometry x="210" y="550" width="120" height="80" as="geometry" />
        </mxCell>
        <mxCell id="sGlPZytf064K-ZdQLq3d-27" value="stop or stationary" style="text;html=1;strokeColor=none;fillColor=none;align=center;verticalAlign=middle;whiteSpace=wrap;rounded=0;" vertex="1" parent="WIyWlLk6GJQsqaUBKTNV-1">
          <mxGeometry x="270" y="630" width="60" height="30" as="geometry" />
        </mxCell>
        <mxCell id="sGlPZytf064K-ZdQLq3d-29" value="&lt;div&gt;Set Mottion Pattern&lt;/div&gt;&lt;div&gt;to stop or stationay&lt;br&gt;&lt;/div&gt;" style="rounded=0;whiteSpace=wrap;html=1;" vertex="1" parent="WIyWlLk6GJQsqaUBKTNV-1">
          <mxGeometry x="-10" y="740" width="120" height="60" as="geometry" />
        </mxCell>
        <mxCell id="sGlPZytf064K-ZdQLq3d-30" style="edgeStyle=orthogonalEdgeStyle;rounded=0;orthogonalLoop=1;jettySize=auto;html=1;exitX=0.5;exitY=1;exitDx=0;exitDy=0;entryX=0.5;entryY=0;entryDx=0;entryDy=0;" edge="1" parent="WIyWlLk6GJQsqaUBKTNV-1" target="sGlPZytf064K-ZdQLq3d-31">
          <mxGeometry relative="1" as="geometry">
            <mxPoint x="50" y="800" as="sourcePoint" />
          </mxGeometry>
        </mxCell>
        <mxCell id="sGlPZytf064K-ZdQLq3d-37" style="edgeStyle=orthogonalEdgeStyle;rounded=0;orthogonalLoop=1;jettySize=auto;html=1;" edge="1" parent="WIyWlLk6GJQsqaUBKTNV-1" source="sGlPZytf064K-ZdQLq3d-31">
          <mxGeometry relative="1" as="geometry">
            <mxPoint x="140" y="240" as="targetPoint" />
            <Array as="points">
              <mxPoint x="50" y="940" />
              <mxPoint x="-90" y="940" />
              <mxPoint x="-90" y="240" />
            </Array>
          </mxGeometry>
        </mxCell>
        <mxCell id="sGlPZytf064K-ZdQLq3d-31" value="Disable Torque Control" style="rounded=1;whiteSpace=wrap;html=1;" vertex="1" parent="WIyWlLk6GJQsqaUBKTNV-1">
          <mxGeometry x="-10" y="850" width="120" height="60" as="geometry" />
        </mxCell>
        <mxCell id="sGlPZytf064K-ZdQLq3d-32" value="&lt;div&gt;Set Mottion Pattern&lt;/div&gt;&lt;div&gt;to moving&lt;br&gt;&lt;/div&gt;" style="rounded=0;whiteSpace=wrap;html=1;" vertex="1" parent="WIyWlLk6GJQsqaUBKTNV-1">
          <mxGeometry x="210" y="730" width="120" height="60" as="geometry" />
        </mxCell>
        <mxCell id="sGlPZytf064K-ZdQLq3d-35" value="Moving" style="text;html=1;strokeColor=none;fillColor=none;align=center;verticalAlign=middle;whiteSpace=wrap;rounded=0;" vertex="1" parent="WIyWlLk6GJQsqaUBKTNV-1">
          <mxGeometry x="120" y="570" width="60" height="30" as="geometry" />
        </mxCell>
      </root>
    </mxGraphModel>
  </diagram>
</mxfile>
